{"title":"[GAY] Russian father and son fucking eath other","uid":7958887,"size":84015850,"categoryP":"porn","categoryS":"movie_clips","magnet":"?xt=urn:btih:7dbc7beb2800ac4752e3f0627a7fa248715786e3&amp;dn=%5BGAY%5D+Russian+father+and+son+fucking+eath+other&amp;tr=udp%3A%2F%2Ftracker.openbittorrent.com%3A80&amp;tr=udp%3A%2F%2Fopen.demonii.com%3A1337&amp;tr=udp%3A%2F%2Ftracker.coppersurfer.tk%3A6969&amp;tr=udp%3A%2F%2Fexodus.desync.com%3A6969","seeders":1,"leechers":0,"uploader":"GaySubsGR","files":-1,"time":1356480876,"description":"General\nComplete name                            : Russian father and son.flv\nFormat                                   : Flash Video\nFile size                                : 80.1 MiB\nDuration                                 : 15mn 41s\nOverall bit rate mode                    : Variable\nOverall bit rate                         : 714 Kbps\nTagging application                      : Yet Another Metadata Injector for FLV - Version 1.6\n\nVideo\nFormat                                   : Sorenson Spark\nCodec ID                                 : 2\nDuration                                 : 15mn 41s\nBit rate                                 : 589 Kbps\nWidth                                    : 480 pixels\nHeight                                   : 360 pixels\nDisplay aspect ratio                     : 4:3\nFrame rate mode                          : Constant\nFrame rate                               : 25.000 fps\nBit depth                                : 8 bits\nBits/(Pixel*Frame)                       : 0.136\nStream size                              : 68.0 MiB (85%)\n\nAudio\nFormat                                   : MPEG Audio\nFormat version                           : Version 1\nFormat profile                           : Layer 3\nMode                                     : Joint stereo\nMode extension                           : MS Stereo\nCodec ID                                 : 2\nCodec ID/Hint                            : MP3\nDuration                                 : 15mn 41s\nBit rate mode                            : Variable\nBit rate                                 : 99.6 Kbps\nChannel(s)                               : 2 channels\nSampling rate                            : 44.1 KHz\nCompression mode                         : Lossy\nStream size                              : 11.8 MiB (15%)\nWriting library                          : LAME3.98.4\n\n\nFULLL size image: http://bayimg.com/eAHPHAaek\n\nYou can add me on Skype if you want @ GaySubsGR\n\n** GREEK **\nKali proboli kai min 3exnate na kanete SEED! :)\n\nMore: https://thepiratebay.se/user/GaySubsGR","torrent":{"xt":"urn:btih:7dbc7beb2800ac4752e3f0627a7fa248715786e3","amp;dn":"%5BGAY%5D+Russian+father+and+son+fucking+eath+other","amp;tr":["udp%3A%2F%2Ftracker.openbittorrent.com%3A80","udp%3A%2F%2Fopen.demonii.com%3A1337","udp%3A%2F%2Ftracker.coppersurfer.tk%3A6969","udp%3A%2F%2Fexodus.desync.com%3A6969"],"infoHash":"7dbc7beb2800ac4752e3f0627a7fa248715786e3","infoHashBuffer":{"type":"Buffer","data":[125,188,123,235,40,0,172,71,82,227,240,98,122,127,162,72,113,87,134,227]},"announce":[],"urlList":[]}}